<mxfile host="app.diagrams.net" modified="2020-12-07T17:52:53.003Z" agent="5.0 (Windows NT 10.0; Win64; x64) AppleWebKit/537.36 (KHTML, like Gecko) Chrome/87.0.4280.67 Safari/537.36 Edg/87.0.664.55" etag="Jw-SbPyETUHjCA7XsIn-" version="13.11.0" type="github">
  <diagram id="S4fYWXtu835OQgn1I5YK" name="Page-1">
    <mxGraphModel dx="1422" dy="746" grid="1" gridSize="10" guides="1" tooltips="1" connect="1" arrows="1" fold="1" page="1" pageScale="1" pageWidth="827" pageHeight="1169" math="0" shadow="0">
      <root>
        <mxCell id="0" />
        <mxCell id="1" parent="0" />
        <mxCell id="EzJb_2AODaSsY35CWrnH-17" style="edgeStyle=orthogonalEdgeStyle;rounded=0;orthogonalLoop=1;jettySize=auto;html=1;entryX=0;entryY=0.25;entryDx=0;entryDy=0;entryPerimeter=0;endArrow=none;endFill=0;" parent="1" source="EzJb_2AODaSsY35CWrnH-1" target="EzJb_2AODaSsY35CWrnH-16" edge="1">
          <mxGeometry relative="1" as="geometry" />
        </mxCell>
        <mxCell id="EzJb_2AODaSsY35CWrnH-1" value="" style="rounded=0;whiteSpace=wrap;html=1;" parent="1" vertex="1">
          <mxGeometry x="100.17" y="120" width="320" height="40" as="geometry" />
        </mxCell>
        <mxCell id="EzJb_2AODaSsY35CWrnH-2" value="" style="endArrow=none;html=1;" parent="1" edge="1">
          <mxGeometry width="50" height="50" relative="1" as="geometry">
            <mxPoint x="140.17000000000002" y="160" as="sourcePoint" />
            <mxPoint x="140.17000000000002" y="120" as="targetPoint" />
          </mxGeometry>
        </mxCell>
        <mxCell id="EzJb_2AODaSsY35CWrnH-3" value="" style="endArrow=none;html=1;" parent="1" edge="1">
          <mxGeometry width="50" height="50" relative="1" as="geometry">
            <mxPoint x="180.17000000000002" y="160" as="sourcePoint" />
            <mxPoint x="180.17000000000002" y="120" as="targetPoint" />
          </mxGeometry>
        </mxCell>
        <mxCell id="EzJb_2AODaSsY35CWrnH-4" value="" style="endArrow=none;html=1;" parent="1" edge="1">
          <mxGeometry width="50" height="50" relative="1" as="geometry">
            <mxPoint x="220.17000000000002" y="160" as="sourcePoint" />
            <mxPoint x="220.17000000000002" y="120" as="targetPoint" />
          </mxGeometry>
        </mxCell>
        <mxCell id="EzJb_2AODaSsY35CWrnH-5" value="" style="endArrow=none;html=1;" parent="1" edge="1">
          <mxGeometry width="50" height="50" relative="1" as="geometry">
            <mxPoint x="260.17" y="160" as="sourcePoint" />
            <mxPoint x="260.17" y="120" as="targetPoint" />
          </mxGeometry>
        </mxCell>
        <mxCell id="EzJb_2AODaSsY35CWrnH-6" value="" style="endArrow=none;html=1;" parent="1" edge="1">
          <mxGeometry width="50" height="50" relative="1" as="geometry">
            <mxPoint x="299.6" y="160" as="sourcePoint" />
            <mxPoint x="299.6" y="120" as="targetPoint" />
          </mxGeometry>
        </mxCell>
        <mxCell id="EzJb_2AODaSsY35CWrnH-7" value="" style="endArrow=none;html=1;" parent="1" edge="1">
          <mxGeometry width="50" height="50" relative="1" as="geometry">
            <mxPoint x="339.6" y="160" as="sourcePoint" />
            <mxPoint x="339.6" y="120" as="targetPoint" />
          </mxGeometry>
        </mxCell>
        <mxCell id="EzJb_2AODaSsY35CWrnH-8" value="" style="endArrow=none;html=1;" parent="1" edge="1">
          <mxGeometry width="50" height="50" relative="1" as="geometry">
            <mxPoint x="379.6" y="160" as="sourcePoint" />
            <mxPoint x="379.6" y="120" as="targetPoint" />
          </mxGeometry>
        </mxCell>
        <mxCell id="EzJb_2AODaSsY35CWrnH-10" value="" style="triangle;whiteSpace=wrap;html=1;rotation=-90;" parent="1" vertex="1">
          <mxGeometry x="412.67" y="152.5" width="5" height="10" as="geometry" />
        </mxCell>
        <mxCell id="EzJb_2AODaSsY35CWrnH-12" value="" style="endArrow=classic;html=1;" parent="1" edge="1">
          <mxGeometry width="50" height="50" relative="1" as="geometry">
            <mxPoint x="260.17" y="220" as="sourcePoint" />
            <mxPoint x="260.17" y="160" as="targetPoint" />
          </mxGeometry>
        </mxCell>
        <mxCell id="EzJb_2AODaSsY35CWrnH-25" value="Pin" style="edgeLabel;html=1;align=center;verticalAlign=middle;resizable=0;points=[];" parent="EzJb_2AODaSsY35CWrnH-12" vertex="1" connectable="0">
          <mxGeometry x="-0.2571" y="1" relative="1" as="geometry">
            <mxPoint x="1" y="-7.619999999999999" as="offset" />
          </mxGeometry>
        </mxCell>
        <mxCell id="EzJb_2AODaSsY35CWrnH-14" value="" style="shape=xor;whiteSpace=wrap;html=1;" parent="1" vertex="1">
          <mxGeometry x="620.17" y="200" width="30" height="40" as="geometry" />
        </mxCell>
        <mxCell id="EzJb_2AODaSsY35CWrnH-18" style="edgeStyle=orthogonalEdgeStyle;rounded=0;orthogonalLoop=1;jettySize=auto;html=1;entryX=0.175;entryY=0.25;entryDx=0;entryDy=0;entryPerimeter=0;endArrow=none;endFill=0;" parent="1" source="EzJb_2AODaSsY35CWrnH-16" target="EzJb_2AODaSsY35CWrnH-14" edge="1">
          <mxGeometry relative="1" as="geometry" />
        </mxCell>
        <mxCell id="EzJb_2AODaSsY35CWrnH-16" value="" style="shape=or;whiteSpace=wrap;html=1;" parent="1" vertex="1">
          <mxGeometry x="500.17" y="160" width="30" height="40" as="geometry" />
        </mxCell>
        <mxCell id="EzJb_2AODaSsY35CWrnH-19" value="" style="endArrow=oval;html=1;endFill=0;" parent="1" edge="1">
          <mxGeometry width="50" height="50" relative="1" as="geometry">
            <mxPoint x="464.17" y="189.85999999999999" as="sourcePoint" />
            <mxPoint x="500.17" y="190.14999999999998" as="targetPoint" />
            <Array as="points">
              <mxPoint x="490.17" y="190.14999999999998" />
            </Array>
          </mxGeometry>
        </mxCell>
        <mxCell id="EzJb_2AODaSsY35CWrnH-24" value="force 0" style="edgeLabel;html=1;align=center;verticalAlign=middle;resizable=0;points=[];" parent="EzJb_2AODaSsY35CWrnH-19" vertex="1" connectable="0">
          <mxGeometry x="-0.0244" y="1" relative="1" as="geometry">
            <mxPoint x="-21.63" y="0.94" as="offset" />
          </mxGeometry>
        </mxCell>
        <mxCell id="EzJb_2AODaSsY35CWrnH-20" value="" style="endArrow=none;html=1;entryX=0.175;entryY=0.75;entryDx=0;entryDy=0;entryPerimeter=0;endFill=0;" parent="1" target="EzJb_2AODaSsY35CWrnH-14" edge="1">
          <mxGeometry width="50" height="50" relative="1" as="geometry">
            <mxPoint x="580.17" y="230" as="sourcePoint" />
            <mxPoint x="620.17" y="230" as="targetPoint" />
          </mxGeometry>
        </mxCell>
        <mxCell id="EzJb_2AODaSsY35CWrnH-23" value="force 1" style="edgeLabel;html=1;align=center;verticalAlign=middle;resizable=0;points=[];" parent="EzJb_2AODaSsY35CWrnH-20" vertex="1" connectable="0">
          <mxGeometry x="-0.4465" relative="1" as="geometry">
            <mxPoint as="offset" />
          </mxGeometry>
        </mxCell>
        <mxCell id="EzJb_2AODaSsY35CWrnH-22" value="" style="endArrow=none;html=1;endFill=0;" parent="1" edge="1">
          <mxGeometry width="50" height="50" relative="1" as="geometry">
            <mxPoint x="650.17" y="220" as="sourcePoint" />
            <mxPoint x="700.17" y="220" as="targetPoint" />
          </mxGeometry>
        </mxCell>
        <mxCell id="EzJb_2AODaSsY35CWrnH-27" value="COUNTER" style="rounded=0;whiteSpace=wrap;html=1;" parent="1" vertex="1">
          <mxGeometry x="150" y="40" width="120" height="40" as="geometry" />
        </mxCell>
        <mxCell id="EzJb_2AODaSsY35CWrnH-32" style="edgeStyle=orthogonalEdgeStyle;rounded=0;orthogonalLoop=1;jettySize=auto;html=1;exitX=1;exitY=0.25;exitDx=0;exitDy=0;endArrow=none;endFill=0;" parent="1" source="EzJb_2AODaSsY35CWrnH-27" edge="1">
          <mxGeometry relative="1" as="geometry">
            <mxPoint x="357.5" y="50" as="targetPoint" />
            <mxPoint x="237.5" y="40" as="sourcePoint" />
            <Array as="points">
              <mxPoint x="327.5" y="50" />
            </Array>
          </mxGeometry>
        </mxCell>
        <mxCell id="EzJb_2AODaSsY35CWrnH-33" value="count_en" style="edgeLabel;html=1;align=center;verticalAlign=middle;resizable=0;points=[];" parent="EzJb_2AODaSsY35CWrnH-32" vertex="1" connectable="0">
          <mxGeometry x="-0.2957" y="-1" relative="1" as="geometry">
            <mxPoint x="9.05" as="offset" />
          </mxGeometry>
        </mxCell>
        <mxCell id="EzJb_2AODaSsY35CWrnH-35" value="SH" style="text;html=1;align=center;verticalAlign=middle;resizable=0;points=[];autosize=1;" parent="1" vertex="1">
          <mxGeometry x="352.5" y="40" width="30" height="20" as="geometry" />
        </mxCell>
        <mxCell id="EzJb_2AODaSsY35CWrnH-40" value="" style="endArrow=none;html=1;entryX=0;entryY=0.25;entryDx=0;entryDy=0;" parent="1" target="EzJb_2AODaSsY35CWrnH-1" edge="1">
          <mxGeometry width="50" height="50" relative="1" as="geometry">
            <mxPoint x="50.17" y="130" as="sourcePoint" />
            <mxPoint x="160.17000000000002" y="190" as="targetPoint" />
          </mxGeometry>
        </mxCell>
        <mxCell id="EzJb_2AODaSsY35CWrnH-41" value="SH" style="edgeLabel;html=1;align=center;verticalAlign=middle;resizable=0;points=[];" parent="EzJb_2AODaSsY35CWrnH-40" vertex="1" connectable="0">
          <mxGeometry x="0.1629" y="3" relative="1" as="geometry">
            <mxPoint x="-39.14" as="offset" />
          </mxGeometry>
        </mxCell>
        <mxCell id="EzJb_2AODaSsY35CWrnH-42" value="" style="endArrow=none;html=1;" parent="1" edge="1">
          <mxGeometry width="50" height="50" relative="1" as="geometry">
            <mxPoint x="40.17" y="148" as="sourcePoint" />
            <mxPoint x="100.17" y="148" as="targetPoint" />
            <Array as="points" />
          </mxGeometry>
        </mxCell>
        <mxCell id="EzJb_2AODaSsY35CWrnH-45" value="LD" style="edgeLabel;html=1;align=center;verticalAlign=middle;resizable=0;points=[];" parent="EzJb_2AODaSsY35CWrnH-42" vertex="1" connectable="0">
          <mxGeometry x="-0.4619" y="-2" relative="1" as="geometry">
            <mxPoint x="-16" as="offset" />
          </mxGeometry>
        </mxCell>
        <mxCell id="EzJb_2AODaSsY35CWrnH-46" value="" style="endArrow=none;html=1;exitX=1;exitY=0.5;exitDx=0;exitDy=0;" parent="1" source="EzJb_2AODaSsY35CWrnH-49" edge="1">
          <mxGeometry width="50" height="50" relative="1" as="geometry">
            <mxPoint x="107.5" y="50" as="sourcePoint" />
            <mxPoint x="148" y="58" as="targetPoint" />
            <Array as="points" />
          </mxGeometry>
        </mxCell>
        <mxCell id="EzJb_2AODaSsY35CWrnH-47" value="TC" style="edgeLabel;html=1;align=center;verticalAlign=middle;resizable=0;points=[];" parent="EzJb_2AODaSsY35CWrnH-46" vertex="1" connectable="0">
          <mxGeometry x="0.2531" y="2" relative="1" as="geometry">
            <mxPoint x="-12.28" y="2.18" as="offset" />
          </mxGeometry>
        </mxCell>
        <mxCell id="EzJb_2AODaSsY35CWrnH-49" value="= 7" style="rounded=0;whiteSpace=wrap;html=1;" parent="1" vertex="1">
          <mxGeometry x="40" y="48.129999999999995" width="40" height="20" as="geometry" />
        </mxCell>
        <mxCell id="EzJb_2AODaSsY35CWrnH-54" value="" style="triangle;whiteSpace=wrap;html=1;rotation=-90;" parent="1" vertex="1">
          <mxGeometry x="258.13" y="68.13" width="8.75" height="15" as="geometry" />
        </mxCell>
      </root>
    </mxGraphModel>
  </diagram>
</mxfile>
